<svg height="1573" xmlns="http://www.w3.org/2000/svg" xmlns:ev="http://www.w3.org/2001/xml-events" width="844" xmlns:xlink="http://www.w3.org/1999/xlink" viewBox="0 0 844 1573"><style type="text/css"><![CDATA[
.st1 {fill:#303030;font-family:宋体;font-size:10pt}
.st4 {fill:#303030}
.st3 {fill:#357d91;font-family:Arial;font-size:12pt}
.st2 {fill:#ffffff;font-family:宋体;font-size:10pt;font-weight:bold}
.st5 {fill:#ffffff;font-family:宋体;font-size:10pt}
]]></style><defs><linearGradient y2="100%" x1="0%" id="lg1" y1="0%" x2="0%"><stop stop-color="#fbfbfb" offset="0"/><stop stop-color="#efefef" offset="1"/></linearGradient><linearGradient y2="100%" x1="0%" id="lg2" y1="0%" x2="0%"><stop stop-color="#9bbb59" offset="0"/><stop stop-color="#88a44d" offset="1"/></linearGradient><linearGradient y2="100%" x1="0%" id="lg3" y1="0%" x2="0%"><stop stop-color="#4bacc6" offset="0"/><stop stop-color="#4197ae" offset="1"/></linearGradient></defs><g transform="translate(5,5)" id="page1"><rect height="1563" x="0" stroke="#808080" fill="#ffffff" width="834" y="0"/><g transform="translate(377.02,40.5)"><g id="shape1"><path fill-opacity="0.08" fill="#000000" d="M25.5,58L72.5,58C85.5,58,96,47.5,96,30C96,12.5,85.5,2,72.5,2L25.5,2C12.5,2,2,12.5,2,30C2,47.5,12.5,58,25.5,58z"/><path stroke="#6d6d6d" fill="url(#lg1)" d="M23.5,56L70.5,56C83.5,56,94,45.5,94,28C94,10.5,83.5,0,70.5,0L23.5,0C10.5,0,0,10.5,0,28C0,45.5,10.5,56,23.5,56z"/></g><text class="st1"><tspan x="34" y="32.5">开始</tspan></text></g><g transform="translate(363.03,200.71)" id="shape2"><path stroke="#fcd9ba" fill="#fcd9ba" d="M27.5,55.1L94.4,55.1C109.6,55.1,122,42.8,122,27.5C122,12.3,109.6,0,94.4,0L27.5,0C12.3,0,0,12.3,0,27.5C0,42.8,12.3,55.1,27.5,55.1z"/><text class="st1"><tspan x="38.5" y="24.5">static/</tspan><tspan x="25.5" y="39.5">version.txt</tspan></text></g><g transform="translate(667.02,228.25)" id="shape3"><path stroke="#6d6d6d" fill="none" d="M0,0L-177.6,0"/><path stroke="#6d6d6d" stroke-linecap="round" fill="#6d6d6d" stroke-width="1" d="M-182,0L-176.8,3C-177.3,2.1,-177.6,1.1,-177.6,0C-177.6,-1.1,-177.3,-2.1,-176.8,-3L-182,0"/><rect height="15" x="-116.4" fill="#ffffff" width="53.1" y="-15"/><rect height="15" x="-126.6" fill="#ffffff" width="72.6" y="0"/><text class="st1"><tspan x="-116.8" y="-3">生产环境</tspan><tspan x="-126.8" y="12">写入tag版本</tspan></text></g><g transform="translate(58.02,199.25)" id="shape4"><path fill-opacity="0.08" fill="#000000" d="M2,52.8L2,9.3C21.2,18.9,43.8,18.9,63,9.3C82.2,-0.4,104.8,-0.4,124,9.3L124,52.8C104.8,43.1,82.2,43.1,63,52.8C43.8,62.4,21.2,62.4,2,52.8z"/><path stroke="url(#lg2)" fill="url(#lg2)" d="M0,50.8L0,7.3C19.2,16.9,41.8,16.9,61,7.3C80.2,-2.4,102.8,-2.4,122,7.3L122,50.8C102.8,41.1,80.2,41.1,61,50.8C41.8,60.4,19.2,60.4,0,50.8z"/><text class="st2"><tspan x="7" y="26">webpack.release.</tspan><tspan x="37" y="41">conf.js</tspan></text></g><g transform="translate(196.26,364.5)"/><path stroke="#6d6d6d" fill="none" transform="translate(777.26,262.5)" d="M0,0" id="shape5"/><g transform="translate(424.02,96.5)" id="shape6"><path stroke="#6d6d6d" fill="none" d="M0,0L0,70.7L-305,70.7L-305,105.6"/><path stroke="#6d6d6d" stroke-linecap="round" fill="#6d6d6d" stroke-width="1" d="M-305,110L-302,104.8C-302.9,105.3,-303.9,105.6,-305,105.6C-306.1,105.6,-307.1,105.3,-308,104.8L-305,110"/></g><g transform="translate(239.02,555)"/><g transform="translate(58.02,374)"><g><g id="shape8"><path fill-opacity="0.08" fill="#000000" d="M2,163L2,2L734,2L734,163C613.9,132.3,488.1,132.3,368,163C247.9,193.7,122.1,193.7,2,163z"/><path stroke="#357d91" fill="url(#lg1)" d="M0,161L0,0L732,0L732,161C611.9,130.3,486.1,130.3,366,161C245.9,191.7,120.1,191.7,0,161z"/></g><text class="st3"><tspan class="st4" x="8" y="21">X2OfflineResourcePlugin.js</tspan></text></g></g><g transform="translate(424.02,255.79)" id="shape9"><path stroke="#6d6d6d" fill="none" d="M-5.4,2.7C-56.8,28.6,-82,56.2,-82,97.7C-82,140.6,-135,154.7,-191,181.7"/><path stroke="#6d6d6d" stroke-linecap="round" fill="#6d6d6d" stroke-width="1" d="M-6.7,-0L0,0L-4,5.3L-6.7,-0"/><rect height="15" x="-94.9" fill="#ffffff" width="26.6" y="79.8"/><text class="st1"><tspan x="-95" y="91.8">读取</tspan></text></g><g transform="translate(119.03,250)" id="shape10"><path stroke="#6d6d6d" fill="none" d="M0,0L0,51.5L305,51.5L305,119.6"/><path stroke="#6d6d6d" stroke-linecap="round" fill="#6d6d6d" stroke-width="1" d="M305,124L308,118.8C307.1,119.3,306.1,119.6,305,119.6C303.9,119.6,302.9,119.3,302,118.8L305,124"/></g><g transform="translate(342.9,613.2)" id="shape11"><path fill-opacity="0.08" fill="#000000" d="M2,51L2,9C28.2,18.3,56.9,18.3,83.1,9C109.4,-0.3,138,-0.3,164.2,9L164.2,51C138,41.7,109.4,41.7,83.1,51C56.9,60.3,28.2,60.3,2,51z"/><path stroke="url(#lg2)" fill="url(#lg2)" d="M0,49L0,7C26.2,16.3,54.9,16.3,81.1,7C107.4,-2.3,136,-2.3,162.2,7L162.2,49C136,39.7,107.4,39.7,81.1,49C54.9,58.3,26.2,58.3,0,49z"/><text class="st2"><tspan x="47.1" y="32.5">index.html</tspan></text></g><g transform="translate(143,437.5)" id="shape12"><path fill-opacity="0.08" fill="#000000" d="M2,30.5C2,14.8,42.3,2,92,2C141.7,2,182,14.8,182,30.5C182,46.2,141.7,59,92,59C42.3,59,2,46.2,2,30.5z"/><path stroke="url(#lg3)" fill="url(#lg3)" d="M0,28.5C0,12.8,40.3,0,90,0C139.7,0,180,12.8,180,28.5C180,44.2,139.7,57,90,57C40.3,57,0,44.2,0,28.5z"/><text class="st2"><tspan x="27" y="25.5">读取版本号：version</tspan><tspan x="17" y="40.5">获取所有的编译资源列表</tspan></text></g><g transform="translate(610.4,392.5)"><g transform="translate(0,44)" id="shape13"><path fill-opacity="0.08" fill="#000000" d="M2,52.8L2,9.3C25.8,18.9,52.4,18.9,76.1,9.2C99.9,-0.4,126.5,-0.4,150.2,9.3L150.2,52.8C126.5,43.1,99.9,43.1,76.1,52.8C52.4,62.4,25.8,62.4,2,52.8z"/><path stroke="url(#lg2)" fill="url(#lg2)" d="M0,50.8L0,7.3C23.8,16.9,50.4,16.9,74.1,7.2C97.9,-2.4,124.5,-2.4,148.2,7.3L148.2,50.8C124.5,41.1,97.9,41.1,74.1,50.8C50.4,60.4,23.8,60.4,0,50.8z"/><text class="st2"><tspan x="17.1" y="33.5">service-worker.js</tspan></text></g></g><g transform="translate(323,466)" id="shape14"><path stroke="#6d6d6d" fill="none" d="M0,0L255.4,0L283,-0.4"/><path stroke="#6d6d6d" stroke-linecap="round" fill="#6d6d6d" stroke-width="1" d="M287.4,-0.5L282.2,-3.4C282.7,-2.5,283,-1.5,283,-0.4C283,.7,282.7,1.7,282.3,2.6L287.4,-0.5"/><rect height="15" x="131.1" fill="#ffffff" width="26.6" y="-7.5"/><text class="st1"><tspan x="131" y="4.5">写入</tspan></text></g><g transform="translate(424.02,535)" id="shape15"><path stroke="#6d6d6d" fill="none" d="M0,0L0,80.8"/><path stroke="#6d6d6d" stroke-linecap="round" fill="#6d6d6d" stroke-width="1" d="M0,85.2L3,80C2.1,80.5,1.1,80.8,0,80.8C-1.1,80.8,-2.1,80.5,-3,80L0,85.2"/></g><g transform="translate(315.77,737.5)"><g id="shape16"><path fill-opacity="0.08" fill="#000000" d="M110.3,96L218.5,49L110.3,2L2,49L110.3,96z"/><path stroke="#6d6d6d" fill="url(#lg1)" d="M108.3,94L216.5,47L108.3,0L0,47L108.3,94z"/></g><text class="st1"><tspan x="50.3" y="44">判断浏览器是否支持</tspan><tspan x="63.3" y="59">service-worker</tspan></text></g><g transform="translate(424.02,662.2)" id="shape17"><path stroke="#6d6d6d" fill="none" d="M0,0L0,70.9"/><path stroke="#6d6d6d" stroke-linecap="round" fill="#6d6d6d" stroke-width="1" d="M0,75.3L3,70.1C2.1,70.6,1.1,70.9,0,70.9C-1.1,70.9,-2.1,70.6,-3,70.1L0,75.3"/></g><g transform="translate(424.02,831.5)" id="shape18"><path stroke="#6d6d6d" fill="none" d="M0,0L0,55.5L202.7,55.5L202.7,97.6"/><path stroke="#6d6d6d" stroke-linecap="round" fill="#6d6d6d" stroke-width="1" d="M202.7,102L205.7,96.8C204.8,97.3,203.8,97.6,202.7,97.6C201.6,97.6,200.6,97.3,199.7,96.8L202.7,102"/><rect height="15" x="90.5" fill="#ffffff" width="13.3" y="48"/><text class="st1"><tspan x="90.3" y="60">是</tspan></text></g><g transform="translate(424.02,831.5)" id="shape19"><path stroke="#6d6d6d" fill="none" d="M0,0L0,57L-231,57L-231,81.6"/><path stroke="#6d6d6d" stroke-linecap="round" fill="#6d6d6d" stroke-width="1" d="M-231,86L-228,80.8C-228.9,81.3,-229.9,81.6,-231,81.6C-232.1,81.6,-233.1,81.3,-234,80.8L-231,86"/><rect height="15" x="-107.9" fill="#ffffff" width="13.3" y="49.5"/><text class="st1"><tspan x="-108" y="61.5">否</tspan></text></g><g transform="translate(146,917.5)"><g id="shape20"><path fill-opacity="0.08" fill="#000000" d="M96,58L96,2L2,2L2,58L96,58z"/><path stroke="#6d6d6d" fill="url(#lg1)" d="M94,56L94,0L0,0L0,56L94,56z"/></g><text class="st5"><tspan class="st4" x="8" y="32.5">一般正常加载</tspan></text></g><g transform="translate(540.34,933.5)"><g id="shape21"><path fill-opacity="0.08" fill="#000000" d="M88.4,66L174.8,34L88.4,2L2,34L88.4,66z"/><path stroke="#6d6d6d" fill="url(#lg1)" d="M86.4,64L172.8,32L86.4,0L0,32L86.4,64z"/></g><text class="st1"><tspan x="47.4" y="36.5">是否有SW控制</tspan></text></g><g transform="translate(626.72,997.5)" id="shape22"><path stroke="#6d6d6d" fill="none" d="M0,0L0,25L54.7,25L54.7,44.6"/><path stroke="#6d6d6d" stroke-linecap="round" fill="#6d6d6d" stroke-width="1" d="M54.7,49L57.7,43.8C56.8,44.3,55.8,44.6,54.7,44.6C53.6,44.6,52.5,44.3,51.7,43.8L54.7,49"/><rect height="15" x="20.4" fill="#ffffff" width="13.3" y="17.5"/><text class="st1"><tspan x="20.3" y="29.5">有</tspan></text></g><g transform="translate(610,1046.5)"><g id="shape23"><path fill-opacity="0.08" fill="#000000" d="M144.8,45L144.8,2L2,2L2,45L144.8,45z"/><path stroke="#6d6d6d" fill="url(#lg1)" d="M142.8,43L142.8,0L0,0L0,43L142.8,43z"/></g><text class="st1"><tspan x="13.4" y="18.5">使用SW的caches加载</tspan><tspan x="32.4" y="33.5">资源渲染页面</tspan></text></g><g transform="translate(626.72,997.5)" id="shape24"><path stroke="#6d6d6d" fill="none" d="M0,0L0,25L-171.3,25L-171.3,36.6"/><path stroke="#6d6d6d" stroke-linecap="round" fill="#6d6d6d" stroke-width="1" d="M-171.3,41L-168.3,35.8C-169.2,36.3,-170.2,36.6,-171.3,36.6C-172.4,36.6,-173.5,36.3,-174.3,35.8L-171.3,41"/><rect height="15" x="-87.6" fill="#ffffff" width="13.3" y="17.5"/><text class="st1"><tspan x="-87.7" y="29.5">无</tspan></text></g><g transform="translate(369,1038.5)"><g id="shape25"><path fill-opacity="0.08" fill="#000000" d="M174.8,34L174.8,2L2,2L2,34L174.8,34z"/><path stroke="#6d6d6d" fill="url(#lg1)" d="M172.8,32L172.8,0L0,0L0,32L172.8,32z"/></g><text class="st1"><tspan x="21.4" y="20.5">网络加载资源渲染页面</tspan></text></g><g transform="translate(455.37,1070.5)" id="shape26"><path stroke="#6d6d6d" fill="none" d="M0,0L0,18.6"/><path stroke="#6d6d6d" stroke-linecap="round" fill="#6d6d6d" stroke-width="1" d="M0,23L3,17.8C2.1,18.3,1.1,18.6,0,18.6C-1.1,18.6,-2.1,18.3,-3,17.8L0,23"/></g><g transform="translate(369,1093.5)"><g id="shape27"><path fill-opacity="0.08" fill="#000000" d="M174.8,28L174.8,2L2,2L2,28L174.8,28z"/><path stroke="#6d6d6d" fill="url(#lg1)" d="M172.8,26L172.8,0L0,0L0,26L172.8,26z"/></g><text class="st1"><tspan x="57.4" y="17.5">安装SW.js</tspan></text></g><g transform="translate(667.02,199.25)" id="shape28"><path fill-opacity="0.08" fill="#000000" d="M2,52.8L2,9.3C21.4,18.9,44.1,18.9,63.5,9.2C82.9,-0.4,105.6,-0.4,125,9.3L125,52.8C105.6,43.1,82.9,43.1,63.5,52.8C44.1,62.4,21.4,62.4,2,52.8z"/><path stroke="url(#lg2)" fill="url(#lg2)" d="M0,50.8L0,7.3C19.4,16.9,42.1,16.9,61.5,7.2C80.9,-2.4,103.6,-2.4,123,7.3L123,50.8C103.6,41.1,80.9,41.1,61.5,50.8C42.1,60.4,19.4,60.4,0,50.8z"/><text class="st2"><tspan x="4" y="26">webpack.prod.conf</tspan><tspan x="51" y="41">.js</tspan></text></g><g transform="translate(424.02,96.5)" id="shape29"><path stroke="#6d6d6d" fill="none" d="M0,0L0,32L304.5,32L304.5,105.6"/><path stroke="#6d6d6d" stroke-linecap="round" fill="#6d6d6d" stroke-width="1" d="M304.5,110L307.5,104.8C306.6,105.3,305.6,105.6,304.5,105.6C303.4,105.6,302.4,105.3,301.5,104.8L304.5,110"/></g><g transform="translate(728.52,250)" id="shape30"><path stroke="#6d6d6d" fill="none" d="M0,0L0,51.5L-304.5,51.5L-304.5,119.6"/><path stroke="#6d6d6d" stroke-linecap="round" fill="#6d6d6d" stroke-width="1" d="M-304.5,124L-301.5,118.8C-302.4,119.3,-303.4,119.6,-304.5,119.6C-305.6,119.6,-306.6,119.3,-307.5,118.8L-304.5,124"/></g><g transform="translate(180.04,228.25)" id="shape31"><path stroke="#6d6d6d" fill="none" d="M0,0L178.6,0"/><path stroke="#6d6d6d" stroke-linecap="round" fill="#6d6d6d" stroke-width="1" d="M183,0L177.8,-3C178.3,-2.1,178.6,-1.1,178.6,0C178.6,1.1,178.3,2.1,177.8,3L183,0"/><rect height="15" x="66.5" fill="#ffffff" width="53.1" y="-15"/><rect height="15" x="46.1" fill="#ffffff" width="93" y="0"/><text class="st1"><tspan x="66" y="-3">测试环境</tspan><tspan x="46" y="12">写入时间字符串</tspan></text></g><g transform="translate(155,1175.5)"><path fill-opacity="0.08" fill="#000000" d="M2,2L78,2L78,78L2,78L2,2z"/><path stroke="#19cbb1" fill="#19cbb1" d="M0,38C0,17,17,0,38,0C59,0,76,17,76,38C76,59,59,76,38,76C17,76,0,59,0,38z" id="shape32"/><path stroke="#19cbb1" fill="#ffffff" transform="translate(3.61,3.61)" d="M0,34.4C0,15.4,15.4,0,34.4,0C53.4,0,68.8,15.4,68.8,34.4C68.8,53.4,53.4,68.8,34.4,68.8C15.4,68.8,0,53.4,0,34.4z" id="shape33"/><g transform="translate(6.15,6.15)" id="shape34"><path stroke="#19cbb1" fill="none" d="M0,31.9C0,14.3,14.3,0,31.9,0C49.4,0,63.7,14.3,63.7,31.9C63.7,49.4,49.4,63.7,31.9,63.7C14.3,63.7,0,49.4,0,31.9z"/><text class="st1"><tspan x="6.4" y="28.9">轮询检测</tspan><tspan x="12.4" y="43.9">新版本</tspan></text></g></g><g transform="translate(193,973.5)" id="shape35"><path stroke="#6d6d6d" fill="none" d="M0,0L0,197.6"/><path stroke="#6d6d6d" stroke-linecap="round" fill="#6d6d6d" stroke-width="1" d="M0,202L3,196.8C2.1,197.3,1.1,197.6,0,197.6C-1.1,197.6,-2.1,197.3,-3,196.8L0,202"/></g><g transform="translate(681.38,1089.5)" id="shape36"><path stroke="#6d6d6d" fill="none" d="M0,0L0,124L-446,124"/><path stroke="#6d6d6d" stroke-linecap="round" fill="#6d6d6d" stroke-width="1" d="M-450.4,124L-445.2,127C-445.7,126.1,-446,125.1,-446,124C-446,122.9,-445.7,121.9,-445.2,121L-450.4,124"/></g><g transform="translate(369,1054.5)" id="shape37"><path stroke="#6d6d6d" fill="none" d="M0,0L-176,0L-176,116.6"/><path stroke="#6d6d6d" stroke-linecap="round" fill="#6d6d6d" stroke-width="1" d="M-176,121L-173,115.8C-173.9,116.3,-174.9,116.6,-176,116.6C-177.1,116.6,-178.1,116.3,-179,115.8L-176,121"/></g><g transform="translate(146,1279.5)"><g id="shape38"><path fill-opacity="0.08" fill="#000000" d="M49,60L96,31L49,2L2,31L49,60z"/><path stroke="#6d6d6d" fill="url(#lg1)" d="M47,58L94,29L47,0L0,29L47,58z"/></g><text class="st1"><tspan x="28" y="26">是否有</tspan><tspan x="28" y="41">新版本</tspan></text></g><g transform="translate(193,1251.5)" id="shape39"><path stroke="#6d6d6d" fill="none" d="M0,0L0,23.6"/><path stroke="#6d6d6d" stroke-linecap="round" fill="#6d6d6d" stroke-width="1" d="M0,28L3,22.8C2.1,23.3,1.1,23.6,0,23.6C-1.1,23.6,-2.1,23.3,-3,22.8L0,28"/></g><g transform="translate(240,1308.5)" id="shape40"><path stroke="#6d6d6d" fill="none" d="M0,0L55.6,0"/><path stroke="#6d6d6d" stroke-linecap="round" fill="#6d6d6d" stroke-width="1" d="M60,0L54.8,-3C55.3,-2.1,55.6,-1.1,55.6,0C55.6,1.1,55.3,2.1,54.8,3L60,0"/><rect height="15" x="23.6" fill="#ffffff" width="13.3" y="-7.5"/><text class="st1"><tspan x="23.5" y="4.5">有</tspan></text></g><g transform="translate(300,1272)"><g id="shape41"><path fill-opacity="0.08" fill="#000000" d="M80,75L158,38.5L80,2L2,38.5L80,75z"/><path stroke="#6d6d6d" fill="url(#lg1)" d="M78,73L156,36.5L78,0L0,36.5L78,73z"/></g><text class="st1"><tspan x="52" y="33.5">是否支持</tspan><tspan x="33" y="48.5">service-worker</tspan></text></g><g transform="translate(456,1308.5)" id="shape42"><path stroke="#6d6d6d" fill="none" d="M0,0L55.6,0"/><path stroke="#6d6d6d" stroke-linecap="round" fill="#6d6d6d" stroke-width="1" d="M60,0L54.8,-3C55.3,-2.1,55.6,-1.1,55.6,0C55.6,1.1,55.3,2.1,54.8,3L60,0"/><rect height="15" x="13.6" fill="#ffffff" width="13.3" y="-7.5"/><text class="st1"><tspan x="13.5" y="4.5">是</tspan></text></g><g transform="translate(516,1272)"><g id="shape43"><path fill-opacity="0.08" fill="#000000" d="M158,75L158,2L2,2L2,75L158,75z"/><path stroke="#6d6d6d" fill="url(#lg1)" d="M156,73L156,0L0,0L0,73L156,73z"/></g><text class="st1"><tspan x="13" y="26">后台网络加载资源并存</tspan><tspan x="13" y="41">储，准备新的版本并提</tspan><tspan x="59" y="56">示升级</tspan></text></g><g transform="translate(378,1345)" id="shape44"><path stroke="#6d6d6d" fill="none" d="M0,0L0,55.6"/><path stroke="#6d6d6d" stroke-linecap="round" fill="#6d6d6d" stroke-width="1" d="M0,60L3,54.8C2.1,55.3,1.1,55.6,0,55.6C-1.1,55.6,-2.1,55.3,-3,54.8L0,60"/></g><g transform="translate(328.5,1405)"><g id="shape45"><path fill-opacity="0.08" fill="#000000" d="M101,31.5L101,2L2,2L2,31.5L101,31.5z"/><path stroke="#6d6d6d" fill="url(#lg1)" d="M99,29.5L99,0L0,0L0,29.5L99,29.5z"/></g><text class="st1"><tspan x="24" y="19.3">提示升级</tspan></text></g><g transform="translate(449.5,1469.77)" id="shape46"><path stroke="#00ae9d" fill="#00ae9d" d="M92.5,55.7C99.1,55.7,104.5,50.4,104.5,43.7L104.5,12C104.5,5.4,99.1,0,92.5,0L12,0C5.4,0,0,5.4,0,12L0,43.7C0,50.4,5.4,55.7,12,55.7L92.5,55.7z"/><text class="st5"><tspan x="26.3" y="32.4">升级按钮</tspan></text></g><g transform="translate(427.5,1419.75)" id="shape47"><path stroke="#6d6d6d" fill="none" d="M0,0L74.3,0L74.3,45.6"/><path stroke="#6d6d6d" stroke-linecap="round" fill="#6d6d6d" stroke-width="1" d="M74.3,50L77.3,44.8C76.4,45.3,75.3,45.6,74.3,45.6C73.2,45.6,72.1,45.3,71.3,44.8L74.3,50"/></g><g transform="translate(594,1345)" id="shape48"><path stroke="#6d6d6d" fill="none" d="M0,0L0,74.5L-92.3,74.5L-92.3,120.4"/><path stroke="#6d6d6d" stroke-linecap="round" fill="#6d6d6d" stroke-width="1" d="M-92.3,124.8L-89.3,119.6C-90.1,120.1,-91.2,120.4,-92.3,120.4C-93.3,120.4,-94.4,120.1,-95.3,119.6L-92.3,124.8"/></g><g transform="translate(449.5,1497.63)" id="shape49"><path stroke="#6d6d6d" fill="none" d="M0,0L-394.5,0L-394.5,-856.4L-111,-856.4"/><path stroke="#6d6d6d" stroke-linecap="round" fill="#6d6d6d" stroke-width="1" d="M-106.6,-856.4L-111.8,-859.4C-111.3,-858.6,-111,-857.5,-111,-856.4C-111,-855.3,-111.3,-854.3,-111.8,-853.4L-106.6,-856.4"/></g><g transform="translate(554,1497.63)" id="shape50"><path stroke="#6d6d6d" fill="none" d="M0,0L238,0L238,-856.4L-44.5,-856.4"/><path stroke="#6d6d6d" stroke-linecap="round" fill="#6d6d6d" stroke-width="1" d="M-48.9,-856.4L-43.7,-853.4C-44.2,-854.3,-44.5,-855.3,-44.5,-856.4C-44.5,-857.5,-44.2,-858.6,-43.7,-859.4L-48.9,-856.4"/></g></g></svg>